<?xml version="1.0" encoding="UTF-8"?>
<svg xmlns="http://www.w3.org/2000/svg" xmlns:xlink="http://www.w3.org/1999/xlink" width="375pt" height="374.999991pt" viewBox="0 0 375 374.999991" version="1.2">
<defs>
<clipPath id="clip1">
  <path d="M 10.441406 138.109375 L 358.441406 138.109375 L 358.441406 331.609375 L 10.441406 331.609375 Z M 10.441406 138.109375 "/>
</clipPath>
<clipPath id="clip2">
  <path d="M 132.277344 22 L 242.527344 22 L 242.527344 238 L 132.277344 238 Z M 132.277344 22 "/>
</clipPath>
<clipPath id="clip3">
  <path d="M 132.277344 21.417969 L 242.527344 21.417969 L 242.527344 238.167969 L 132.277344 238.167969 Z M 132.277344 21.417969 "/>
</clipPath>
</defs>
<g id="surface1">
<rect x="0" y="0" width="375" height="374.999991" style="fill:rgb(100%,100%,100%);fill-opacity:1;stroke:none;"/>
<rect x="0" y="0" width="375" height="374.999991" style="fill:rgb(100%,100%,100%);fill-opacity:1;stroke:none;"/>
<rect x="0" y="0" width="375" height="374.999991" style="fill:rgb(0%,0%,0%);fill-opacity:1;stroke:none;"/>
<g clip-path="url(#clip1)" clip-rule="nonzero">
<path style=" stroke:none;fill-rule:nonzero;fill:rgb(100%,100%,100%);fill-opacity:1;" d="M 257.175781 220.398438 L 189.023438 242.082031 L 111.542969 218.757812 C 111.542969 218.757812 111.539062 218.757812 111.535156 218.757812 L 35.332031 195.820312 L 184.402344 149.632812 L 333.949219 195.96875 Z M 253.273438 260.429688 C 244.210938 269.464844 218.777344 277.289062 184.402344 277.289062 C 150.023438 277.289062 124.59375 269.464844 115.527344 260.429688 L 115.527344 231.65625 L 187.457031 253.304688 C 187.726562 253.386719 187.996094 253.445312 188.269531 253.488281 C 188.34375 253.496094 188.414062 253.496094 188.488281 253.503906 C 188.683594 253.523438 188.875 253.542969 189.070312 253.542969 C 189.078125 253.542969 189.089844 253.542969 189.097656 253.539062 C 189.253906 253.539062 189.410156 253.519531 189.566406 253.507812 C 189.691406 253.496094 189.816406 253.496094 189.945312 253.472656 C 190.222656 253.429688 190.5 253.367188 190.769531 253.28125 L 253.273438 233.390625 Z M 235.414062 289.230469 C 221.867188 293.398438 203.75 295.699219 184.402344 295.699219 C 165.050781 295.699219 146.933594 293.398438 133.386719 289.230469 C 120.285156 285.199219 115.527344 280.527344 115.527344 278.371094 L 115.527344 277.371094 C 119.265625 280.199219 124.015625 282.726562 129.710938 284.867188 C 140.792969 289.039062 154.835938 291.597656 170.320312 292.261719 C 170.367188 292.261719 170.40625 292.265625 170.449219 292.265625 C 172.03125 292.265625 173.34375 291.019531 173.410156 289.425781 C 173.484375 287.789062 172.214844 286.40625 170.578125 286.339844 C 144.746094 285.226562 123.804688 278.636719 115.527344 269.4375 L 115.527344 265.660156 C 119.359375 268.574219 124.585938 271.226562 131.085938 273.5 C 145.355469 278.496094 164.292969 281.242188 184.402344 281.242188 C 204.511719 281.242188 223.445312 278.496094 237.714844 273.5 C 244.21875 271.226562 249.441406 268.574219 253.273438 265.660156 L 253.273438 278.371094 C 253.273438 280.527344 248.515625 285.199219 235.414062 289.230469 Z M 60.382812 325.65625 C 56.605469 325.65625 52.910156 324.511719 49.800781 322.398438 L 56.65625 296.328125 C 56.695312 296.351562 56.738281 296.363281 56.78125 296.382812 C 56.851562 296.421875 56.929688 296.457031 57.003906 296.492188 L 53.925781 315.230469 C 53.746094 316.308594 54.476562 317.324219 55.554688 317.5 C 55.664062 317.515625 55.769531 317.527344 55.875 317.527344 C 56.828125 317.527344 57.664062 316.839844 57.824219 315.871094 L 60.886719 297.234375 C 61.023438 297.226562 61.164062 297.21875 61.296875 297.203125 C 61.394531 297.195312 61.484375 297.175781 61.582031 297.160156 C 61.785156 297.128906 61.992188 297.09375 62.191406 297.042969 C 62.292969 297.019531 62.394531 296.992188 62.496094 296.964844 C 62.691406 296.914062 62.878906 296.851562 63.0625 296.785156 C 63.15625 296.75 63.25 296.71875 63.34375 296.679688 C 63.566406 296.589844 63.78125 296.492188 63.996094 296.378906 C 64.035156 296.363281 64.074219 296.347656 64.113281 296.328125 L 70.96875 322.398438 C 67.859375 324.511719 64.164062 325.65625 60.382812 325.65625 Z M 60.382812 291.332031 C 59.285156 291.332031 58.394531 290.4375 58.394531 289.339844 C 58.394531 288.242188 59.285156 287.351562 60.382812 287.351562 C 61.484375 287.351562 62.375 288.242188 62.375 289.339844 C 62.375 290.4375 61.484375 291.332031 60.382812 291.332031 Z M 354.300781 190.550781 L 186.058594 138.417969 C 184.980469 138.085938 183.820312 138.085938 182.742188 138.417969 L 14.5 190.550781 C 12.148438 191.277344 10.546875 193.460938 10.558594 195.921875 C 10.566406 198.382812 12.183594 200.550781 14.546875 201.261719 L 57.417969 214.164062 L 57.417969 282.003906 C 54.65625 283.121094 52.671875 285.753906 52.484375 288.867188 L 43.558594 322.8125 C 43.265625 323.925781 43.644531 325.105469 44.527344 325.84375 C 48.96875 329.546875 54.601562 331.585938 60.382812 331.585938 C 66.167969 331.585938 71.800781 329.546875 76.242188 325.84375 C 77.125 325.105469 77.5 323.925781 77.210938 322.8125 L 68.28125 288.867188 C 68.097656 285.753906 66.113281 283.121094 63.347656 282.003906 L 63.347656 215.949219 L 104.324219 228.285156 L 104.324219 278.371094 C 104.324219 284.589844 108.792969 293.378906 130.089844 299.933594 C 144.675781 304.425781 163.964844 306.898438 184.402344 306.898438 C 204.835938 306.898438 224.125 304.425781 238.710938 299.933594 C 260.007812 293.378906 264.476562 284.589844 264.476562 278.371094 L 264.476562 229.828125 L 354.34375 201.234375 C 356.671875 200.496094 358.253906 198.324219 358.246094 195.878906 C 358.234375 193.433594 356.640625 191.273438 354.300781 190.550781 "/>
</g>
<path style=" stroke:none;fill-rule:nonzero;fill:rgb(100%,100%,100%);fill-opacity:1;" d="M 116.246094 209.042969 L 61.214844 193.011719 C 59.640625 192.550781 57.996094 193.457031 57.535156 195.027344 C 57.078125 196.601562 57.980469 198.246094 59.554688 198.703125 L 114.585938 214.734375 C 114.863281 214.8125 115.144531 214.851562 115.417969 214.851562 C 116.703125 214.851562 117.886719 214.011719 118.261719 212.714844 C 118.722656 211.144531 117.816406 209.5 116.246094 209.042969 "/>
<path style=" stroke:none;fill-rule:nonzero;fill:rgb(100%,100%,100%);fill-opacity:1;" d="M 150.464844 218.90625 L 127.398438 212.648438 C 125.820312 212.21875 124.1875 213.152344 123.757812 214.734375 C 123.328125 216.3125 124.265625 217.941406 125.84375 218.371094 L 148.914062 224.628906 C 149.171875 224.703125 149.433594 224.734375 149.691406 224.734375 C 150.996094 224.734375 152.191406 223.863281 152.550781 222.542969 C 152.980469 220.964844 152.046875 219.335938 150.464844 218.90625 "/>
<path style=" stroke:none;fill-rule:nonzero;fill:rgb(100%,100%,100%);fill-opacity:1;" d="M 112.363281 204.542969 L 135.101562 210.472656 C 135.351562 210.539062 135.601562 210.570312 135.847656 210.570312 C 137.167969 210.570312 138.371094 209.6875 138.71875 208.351562 C 139.132812 206.769531 138.183594 205.148438 136.597656 204.734375 L 113.859375 198.804688 C 112.273438 198.394531 110.652344 199.339844 110.242188 200.925781 C 109.828125 202.507812 110.777344 204.128906 112.363281 204.542969 "/>
<path style=" stroke:none;fill-rule:nonzero;fill:rgb(100%,100%,100%);fill-opacity:1;" d="M 243.0625 178.152344 L 278.320312 189.023438 C 278.613281 189.113281 278.90625 189.15625 279.195312 189.15625 C 280.464844 189.15625 281.636719 188.339844 282.027344 187.066406 C 282.511719 185.5 281.632812 183.839844 280.070312 183.359375 L 244.808594 172.488281 C 243.246094 172.007812 241.582031 172.882812 241.101562 174.445312 C 240.617188 176.011719 241.496094 177.671875 243.0625 178.152344 "/>
<path style=" stroke:none;fill-rule:nonzero;fill:rgb(100%,100%,100%);fill-opacity:1;" d="M 291.816406 192.644531 L 303.351562 196.269531 C 303.644531 196.359375 303.945312 196.40625 304.242188 196.40625 C 305.5 196.40625 306.671875 195.59375 307.066406 194.328125 C 307.558594 192.765625 306.691406 191.101562 305.128906 190.613281 L 293.59375 186.988281 C 292.03125 186.496094 290.367188 187.367188 289.875 188.925781 C 289.386719 190.488281 290.253906 192.152344 291.816406 192.644531 "/>
<path style=" stroke:none;fill-rule:nonzero;fill:rgb(100%,100%,100%);fill-opacity:1;" d="M 62.355469 302.898438 C 62.34375 302.898438 62.332031 302.898438 62.324219 302.898438 C 61.230469 302.914062 60.359375 303.816406 60.378906 304.902344 L 60.597656 318.21875 C 60.617188 319.296875 61.5 320.164062 62.574219 320.164062 C 62.585938 320.164062 62.59375 320.164062 62.609375 320.164062 C 63.699219 320.144531 64.570312 319.246094 64.550781 318.152344 L 64.332031 304.839844 C 64.316406 303.757812 63.433594 302.898438 62.355469 302.898438 "/>
<g clip-path="url(#clip2)" clip-rule="nonzero">
<path style=" stroke:none;fill-rule:nonzero;fill:rgb(100%,100%,100%);fill-opacity:1;" d="M 151.585938 66.355469 C 152.105469 67.914062 153.59375 63.460938 154.117188 65.597656 C 154.917969 68.097656 150.910156 67.765625 151.601562 70.160156 C 151.871094 73.007812 152.234375 75.84375 152.179688 78.710938 C 152.34375 80.800781 153.742188 82.410156 154.71875 84.078125 C 156.402344 85.304688 158.828125 84.378906 160.226562 83.089844 C 161.800781 81.78125 161.960938 79.582031 163.523438 78.214844 C 164.714844 76.308594 165.535156 74.253906 166.980469 72.46875 C 167.777344 70.160156 169.265625 68.011719 169.523438 65.460938 C 169.808594 63.375 170.503906 61.34375 170.429688 59.210938 C 170.632812 56.691406 170.640625 54.136719 170.121094 51.652344 C 170.382812 49.386719 172.738281 48.171875 174.066406 46.550781 C 174.820312 45.621094 175.222656 45.734375 176 44.636719 C 178.097656 43.523438 179.023438 41.796875 181.089844 40.785156 C 184.222656 38.671875 187.625 36.820312 191.355469 36.050781 C 193.089844 35.34375 195.136719 35.6875 196.9375 35.46875 C 198.660156 36.109375 200.664062 36.09375 202.136719 37.238281 C 203.703125 38.355469 205.125 39.65625 206.550781 40.945312 C 207.222656 42.808594 208.816406 44.152344 209.441406 46.050781 C 211.0625 49.25 212.089844 52.703125 213.039062 56.148438 C 214.40625 61.738281 215.1875 67.535156 214.617188 73.292969 C 214.40625 75.648438 213.75 77.949219 213.25 80.253906 C 210.839844 88.585938 205.304688 95.550781 199.339844 101.644531 C 196.144531 104.789062 192.65625 107.617188 189.277344 110.554688 C 183.410156 115.15625 178.140625 120.484375 172.125 124.90625 C 168.34375 128.445312 164.15625 131.519531 160.40625 135.097656 C 156.261719 138.84375 152.421875 142.921875 148.84375 147.203125 C 147.125 149.03125 145.859375 151.222656 144.253906 153.144531 C 141.980469 156.433594 139.957031 159.902344 138.066406 163.425781 C 135.546875 168.980469 133.398438 174.816406 132.953125 180.953125 C 132.378906 186.6875 133.214844 192.445312 134.691406 197.980469 C 135.605469 202.53125 137.320312 206.871094 139.558594 210.921875 C 140.800781 212.964844 141.699219 215.238281 143.128906 217.148438 C 144.234375 218.253906 144.804688 219.933594 145.933594 220.863281 C 146.828125 221.605469 147.683594 222.605469 148.339844 223.539062 C 150.085938 224.253906 150.820312 226.46875 152.609375 227.175781 C 154.625 229.484375 157.46875 230.921875 160.28125 232.007812 C 161.882812 232.550781 163.042969 233.980469 164.960938 233.976562 C 166.777344 234.457031 168.203125 234.824219 170.023438 235.449219 C 170.949219 235.640625 172.179688 235.6875 172.222656 235.984375 C 173.097656 235.308594 172.222656 236.765625 172.953125 236.054688 C 174.789062 236.878906 177.019531 236.460938 178.917969 237.25 C 181.03125 237.5 183.199219 237.511719 185.269531 237.574219 C 186.960938 237.609375 188.957031 237.855469 190.882812 237.671875 C 193.058594 237.496094 194.6875 237.753906 196.796875 237.082031 C 198.222656 237.804688 200.078125 236.90625 201.429688 236.425781 C 203.191406 236.40625 204.667969 235.816406 206.394531 235.46875 C 208.359375 235.257812 210 234.144531 211.875 233.585938 C 213.445312 232.859375 215.160156 232.363281 216.621094 231.414062 C 218.703125 230.511719 220.789062 229.277344 222.5625 227.835938 C 224.011719 227.007812 225.484375 226.171875 226.503906 224.800781 C 228.03125 223.414062 229.453125 222.019531 231.011719 220.511719 C 232.113281 218.691406 233.886719 217.328125 234.761719 215.371094 C 235.800781 213.527344 237.003906 211.71875 237.707031 209.6875 C 238.761719 207.203125 239.882812 204.730469 240.355469 202.054688 C 240.714844 200.554688 241.085938 199.054688 241.441406 197.550781 C 241.785156 195.609375 242.078125 193.5625 242.070312 191.484375 C 242.191406 189.441406 242.527344 187.421875 242.226562 185.363281 C 242.183594 183.21875 241.605469 181.101562 241.394531 178.96875 C 240.957031 176.472656 240.523438 173.960938 239.433594 171.648438 C 238.382812 168.898438 237.457031 166.070312 235.710938 163.664062 C 234.539062 161.566406 233.445312 159.402344 231.816406 157.605469 C 229.777344 154.875 227.175781 152.671875 224.746094 150.304688 C 220.378906 147.210938 215.820312 144.269531 210.6875 142.625 C 205.304688 140.574219 199.269531 140.34375 193.769531 142.070312 C 187.917969 144.015625 182.355469 146.882812 177.347656 150.484375 C 171.371094 155.109375 167.542969 162.261719 166.714844 169.765625 C 166.769531 171.128906 165.871094 174.152344 167.523438 174.398438 C 168.722656 172.933594 169.101562 170.929688 170.171875 169.355469 C 171.382812 167.578125 172.484375 165.90625 174.113281 164.472656 C 175.894531 163.085938 177.253906 161.628906 179.203125 160.59375 C 181.421875 159.890625 183.402344 158.554688 185.675781 158.054688 C 188.078125 157.789062 190.40625 156.875 192.855469 157.082031 C 192.332031 157.503906 194.507812 156.609375 194.199219 157.273438 C 195.960938 157.015625 197.660156 156.976562 199.410156 157.234375 C 203.125 157.183594 206.714844 158.40625 210.128906 159.757812 C 211.136719 160.894531 212.773438 160.929688 213.492188 161.71875 C 213.972656 162.554688 215.375 162.238281 215.136719 163.359375 C 217.023438 163.402344 217.367188 165.980469 218.972656 166.949219 C 220.277344 168.742188 221.488281 170.660156 222.507812 172.644531 C 223.203125 174.664062 224.316406 176.535156 224.621094 178.675781 C 225.785156 183.0625 226.292969 187.703125 225.554688 192.203125 C 225.144531 197.460938 223.179688 202.519531 220.460938 206.996094 C 218.066406 210.878906 214.597656 214.003906 210.773438 216.414062 C 209.105469 216.925781 207.695312 217.945312 206.015625 218.445312 C 201.945312 219.523438 197.875 220.746094 193.640625 220.964844 C 189.617188 221.210938 185.527344 221.203125 181.554688 220.492188 L 174.660156 219.011719 C 172.988281 217.925781 170.976562 217.496094 169.257812 216.476562 C 166.101562 214.945312 163.078125 212.988281 160.574219 210.527344 C 158.253906 207.84375 155.363281 205.507812 153.980469 202.132812 C 152.875 200.035156 152.082031 197.789062 151.488281 195.507812 C 150.855469 193.625 150.6875 191.53125 150.667969 189.609375 C 150.460938 188.328125 150.371094 186.648438 150.492188 185.683594 C 150.890625 183.800781 150.835938 181.46875 151.433594 179.480469 C 152.335938 175.636719 153.257812 171.75 155.101562 168.230469 C 156.234375 165.511719 157.875 163.046875 159.300781 160.476562 C 160.101562 159.132812 160.972656 157.808594 162.089844 156.707031 C 162.785156 155.085938 164.214844 153.964844 165.042969 152.464844 C 166.949219 150.933594 168.273438 148.769531 170.121094 147.148438 C 172.625 144.660156 175.214844 142.253906 177.871094 139.929688 C 179.496094 138.453125 181.570312 137.703125 183.097656 136.144531 C 184.101562 134.628906 185.960938 134.648438 187.207031 133.414062 C 189.042969 132.203125 190.792969 130.75 192.957031 130.1875 C 194.953125 129.496094 196.730469 128.421875 198.628906 127.546875 C 200.226562 126.402344 201.632812 125.917969 203.242188 124.714844 C 204.523438 123.757812 205.867188 123.046875 207.128906 121.84375 C 208.964844 120.425781 210.78125 118.957031 212.359375 117.269531 C 214.039062 116.785156 214.484375 114.386719 216.097656 113.765625 C 216.476562 113.074219 216.835938 112.453125 217.238281 112.609375 C 217.074219 111.414062 218.207031 112.335938 218.429688 111.117188 C 220.1875 109.347656 221.546875 107.292969 223.011719 105.292969 C 224.539062 103.527344 225.613281 101.535156 226.769531 99.539062 C 228.230469 97.882812 228.59375 95.605469 229.976562 93.898438 C 230.886719 92.058594 231.378906 90.042969 232.1875 88.152344 C 233.085938 85.914062 233.199219 83.492188 234.136719 81.28125 C 234.429688 79.382812 235.019531 77.550781 234.730469 75.617188 C 234.519531 74.527344 235.46875 72.476562 235.058594 72.3125 C 235.132812 70.550781 235.320312 68.886719 234.90625 66.882812 C 234.488281 64.753906 234.527344 62.539062 233.820312 60.449219 C 233.246094 58.617188 233.117188 56.183594 231.992188 54.832031 C 231.363281 53.261719 231.011719 51.621094 230.324219 50.070312 C 228.277344 46.308594 226.398438 42.410156 223.71875 39.039062 C 221.359375 35.949219 218.441406 33.351562 215.492188 30.851562 C 213.144531 29.078125 210.464844 27.824219 207.851562 26.496094 C 199.925781 22.855469 190.679688 21.507812 182.210938 23.957031 C 172.84375 26.875 165.253906 33.902344 160.144531 42.144531 C 157.445312 46.195312 155.417969 50.628906 153.347656 55.019531 C 151.898438 57.992188 149.839844 61.058594 150.296875 64.527344 C 150.421875 65.289062 150.859375 66.03125 151.585938 66.355469 Z M 206.925781 42.261719 C 206.726562 42.769531 207.398438 42.035156 206.925781 42.261719 Z M 235.066406 68.804688 C 234.867188 69.308594 235.539062 68.574219 235.066406 68.804688 Z M 202.609375 69.742188 L 202.691406 70.070312 Z M 196.609375 157.082031 C 196.410156 157.589844 197.082031 156.855469 196.609375 157.082031 Z M 208.613281 159.339844 C 208.414062 159.847656 209.085938 159.113281 208.613281 159.339844 Z M 170.53125 168.941406 C 170.332031 169.449219 171.003906 168.710938 170.53125 168.941406 Z M 159.652344 182.117188 L 159.894531 181.871094 Z M 139.765625 211.859375 C 139.566406 212.363281 140.238281 211.628906 139.765625 211.859375 Z M 209.363281 234.632812 C 209.164062 235.140625 209.839844 234.40625 209.363281 234.632812 Z M 173.722656 236.328125 C 173.523438 236.835938 174.195312 236.097656 173.722656 236.328125 Z M 184.414062 237.644531 C 184.214844 238.152344 184.886719 237.417969 184.414062 237.644531 Z M 186.476562 237.644531 C 186.277344 238.152344 186.953125 237.417969 186.476562 237.644531 Z M 186.476562 237.644531 "/>
</g>
<g clip-path="url(#clip3)" clip-rule="nonzero">
<path style="fill:none;stroke-width:1;stroke-linecap:butt;stroke-linejoin:miter;stroke:rgb(0%,0%,0%);stroke-opacity:1;stroke-miterlimit:4;" d="M 132.235314 550.437875 C 135.004734 558.718127 142.938184 535.060263 145.728427 546.411887 C 149.997081 559.693495 128.632986 557.929532 132.318605 570.650822 C 133.755371 585.779403 135.691883 600.845727 135.400365 616.078071 C 136.274919 627.180666 143.729447 635.730701 148.935123 644.592024 C 157.909709 651.108312 170.840609 646.189967 178.295138 639.341638 C 186.686688 632.389546 187.540419 620.705882 195.869501 613.442502 C 202.220426 603.315276 206.593194 592.399455 214.297595 582.915557 C 218.545427 570.650822 226.478877 559.23694 227.853176 545.685549 C 229.373233 534.603708 233.079675 523.812401 232.684044 512.48153 C 233.766824 499.096159 233.80847 485.524016 231.03905 472.325418 C 232.434171 460.288961 244.990262 453.83493 252.069982 445.222637 C 256.088764 440.283539 258.233503 440.885362 262.377221 435.053906 C 273.559014 429.13944 278.493995 419.966829 289.509206 414.591929 C 306.209016 403.364819 324.345592 393.528129 344.231275 389.439884 C 353.476556 385.683679 364.387654 387.5099 373.986921 386.347759 C 383.169734 389.751171 393.851782 389.668161 401.701942 395.748647 C 410.051846 401.683866 417.631311 408.594453 425.231599 415.442782 C 428.813104 425.34173 437.308768 432.480594 440.6404 442.566315 C 449.281823 459.562623 454.758195 477.907844 459.818112 496.21156 C 467.106059 525.908405 471.2706 556.705133 468.230485 587.294337 C 467.106059 599.808102 463.607844 612.031332 460.942538 624.275314 C 448.094929 668.540423 418.589156 705.542152 386.792885 737.916072 C 369.759912 754.621844 351.165236 769.646663 333.153596 785.252553 C 301.877893 809.699012 273.788064 838.005439 241.721098 861.497283 C 221.564719 880.299059 199.242779 896.631287 179.252982 915.640588 C 157.160092 935.542247 136.691373 957.20787 117.617775 979.952624 C 108.455784 989.6648 101.709228 1001.306959 93.151096 1011.517195 C 81.032282 1028.990811 70.24612 1047.419042 60.167931 1066.137808 C 46.737286 1095.64788 35.284798 1126.652134 32.91101 1159.254331 C 29.850072 1189.719019 34.306131 1220.308222 42.177114 1249.714533 C 47.049627 1273.891209 56.190794 1296.947251 68.122204 1318.467606 C 74.743825 1329.32117 79.533047 1341.399132 87.154157 1351.547111 C 93.046983 1357.420072 96.087098 1366.343652 102.104859 1371.28275 C 106.873259 1375.225728 111.433431 1380.538371 114.931646 1385.498221 C 124.239395 1389.295931 128.154064 1401.062605 137.690863 1404.81881 C 148.435378 1417.083545 163.594308 1424.72047 178.586656 1430.489668 C 187.123965 1433.374267 193.308308 1440.969687 203.532256 1440.948934 C 213.214814 1443.501493 220.815102 1445.452229 230.518482 1448.772631 C 235.453463 1449.789505 242.012616 1450.038535 242.241665 1451.615726 C 246.905951 1448.025541 242.241665 1455.766228 246.135511 1451.989271 C 255.922183 1456.368051 267.811947 1454.147532 277.931782 1458.33954 C 289.196866 1459.6677 300.753467 1459.729958 311.789501 1460.061998 C 320.805732 1460.248771 331.446134 1461.556179 341.711728 1460.580811 C 353.309975 1459.646948 361.993043 1461.016614 373.237304 1457.447182 C 380.837591 1461.286396 390.728376 1456.513319 397.933032 1453.96076 C 407.324072 1453.856997 415.195055 1450.723368 424.39869 1448.876394 C 434.872511 1447.755758 443.618047 1441.841292 453.612946 1438.873683 C 461.983673 1435.013716 471.124841 1432.378147 478.912533 1427.335286 C 490.011034 1422.541456 501.130359 1415.983662 510.583867 1408.325985 C 518.309091 1403.926452 526.159251 1399.485415 531.593977 1392.201283 C 539.735654 1384.834141 547.315119 1377.425494 555.623378 1369.415024 C 561.495381 1359.744353 570.948889 1352.501726 575.613175 1342.104718 C 581.152015 1332.309532 587.565408 1322.701119 591.313495 1311.909812 C 596.935626 1298.711214 602.911742 1285.574874 605.431289 1271.359403 C 607.346978 1263.390438 609.325135 1255.421473 611.220001 1247.431756 C 613.052399 1237.117758 614.614102 1226.243441 614.572457 1215.203104 C 615.217961 1204.34954 617.008713 1193.620492 615.405365 1182.683917 C 615.176315 1171.290788 612.094555 1160.042926 610.970129 1148.712055 C 608.637986 1135.451199 606.326666 1122.107334 600.517131 1109.821846 C 594.915823 1095.212078 589.980842 1080.187259 580.673093 1067.403711 C 574.426281 1056.259612 568.595924 1044.76272 559.912856 1035.216564 C 549.043404 1020.710558 535.175482 1009.006141 522.223759 996.430119 C 498.943975 979.994129 474.643878 964.367487 447.282843 955.630679 C 418.589156 944.73561 386.418076 943.511212 357.099707 952.683823 C 325.907295 963.018574 296.255763 978.250918 269.561055 997.384734 C 237.702316 1021.955709 217.296064 1059.953559 212.881651 1099.819135 C 213.173169 1107.061762 208.383947 1123.124207 217.191951 1124.431615 C 223.584521 1116.649423 225.604324 1106.003384 231.309745 1097.640122 C 237.764784 1088.197729 243.636787 1079.315653 252.319855 1071.699481 C 261.815008 1064.332339 269.06131 1056.591652 279.451839 1051.092236 C 291.279136 1047.356784 301.836248 1040.259425 313.955062 1037.603103 C 326.761026 1036.191932 339.171358 1031.335845 352.227194 1032.435728 C 349.436952 1034.676999 361.035198 1029.924674 359.390205 1033.452601 C 368.781245 1032.082935 377.839122 1031.87541 387.167693 1033.245076 C 406.970086 1032.975293 426.106152 1039.470829 444.305196 1046.651199 C 449.677454 1052.69018 458.402168 1052.876952 462.233546 1057.06896 C 464.794738 1061.509998 472.27009 1059.829044 470.999905 1065.785015 C 481.057271 1066.013293 482.889669 1079.709951 491.447801 1084.856574 C 498.402585 1094.381977 504.857623 1104.571461 510.292349 1115.113737 C 513.998791 1125.842786 519.933262 1135.783239 521.557433 1147.155616 C 527.762599 1170.460688 530.469551 1195.114672 526.534059 1219.021567 C 524.347675 1246.954448 513.873855 1273.828952 499.381252 1297.611331 C 486.616933 1318.239328 468.126371 1334.841338 447.740943 1347.645639 C 438.849648 1350.364218 431.332651 1355.780623 422.378888 1358.436945 C 400.681629 1364.164638 378.98437 1370.660175 356.412558 1371.822315 C 334.965172 1373.129724 313.163799 1373.088219 291.987108 1369.311261 L 255.235033 1361.446059 C 246.322916 1355.676861 235.599222 1353.394084 226.437232 1347.977679 C 209.612486 1339.842694 193.495712 1329.445685 180.148358 1316.371602 C 167.779672 1302.114626 152.37087 1289.704624 144.999632 1271.774453 C 139.106806 1260.630354 134.879797 1248.697659 131.714746 1236.578192 C 128.341468 1226.575481 127.446092 1215.452135 127.341978 1205.241898 C 126.238375 1198.435074 125.759452 1189.511494 126.404956 1184.385623 C 128.528872 1174.382913 128.237354 1161.993663 131.423228 1151.430634 C 136.233273 1131.010162 141.147432 1110.361412 150.975748 1091.663398 C 157.014333 1077.219649 165.759869 1064.124814 173.360157 1050.469661 C 177.628811 1043.330797 182.272274 1036.295695 188.227568 1030.443487 C 191.93401 1021.831194 199.55512 1015.875223 203.969533 1007.906258 C 214.131013 999.771273 221.18991 988.274381 231.03905 979.662089 C 244.386404 966.442738 258.191857 953.659191 272.351297 941.311446 C 281.013542 933.466996 292.070399 929.482514 300.212077 921.202261 C 305.563512 913.150286 315.475119 913.254049 322.117562 906.696255 C 331.904234 900.262976 341.232806 892.543042 352.768584 889.55468 C 363.408987 885.881485 372.883318 880.174544 383.003152 875.525981 C 391.519639 869.445495 399.015813 866.872184 407.594767 860.48041 C 414.424615 855.396044 421.587625 851.619087 428.313359 845.227313 C 438.10003 837.694151 447.782588 829.891207 456.194961 820.926121 C 465.148724 818.35281 467.522513 805.610767 476.12229 802.311118 C 478.142092 798.637923 480.057781 795.338274 482.20252 796.168374 C 481.327966 789.818105 487.366551 794.715698 488.553445 788.240914 C 497.923662 778.840026 505.169964 767.924205 512.978478 757.298918 C 521.120156 747.918783 526.8464 737.335001 533.009921 726.730468 C 540.797612 717.931402 542.734124 705.832688 550.105362 696.76384 C 554.957052 686.989406 557.580713 676.28111 561.891013 666.236894 C 566.680235 654.345704 567.284093 641.479147 572.281543 629.733225 C 573.843246 619.647504 576.987474 609.914575 575.446594 599.642082 C 574.322168 593.852131 579.382085 582.957062 577.195701 582.085456 C 577.591332 572.726073 578.590822 563.885503 576.383616 553.239464 C 574.155586 541.929345 574.363813 530.16267 570.594903 519.060076 C 567.533966 509.327148 566.846817 496.398332 560.849877 489.217963 C 557.497422 480.875453 555.623378 472.159398 551.958582 463.920651 C 541.047485 443.935981 531.031764 423.224974 516.747388 405.315556 C 504.170474 388.900318 488.615913 375.099898 472.894771 361.81829 C 460.380325 352.396649 446.095949 345.735092 432.165559 338.679238 C 389.916291 319.337897 340.628947 312.17828 295.485322 325.190105 C 245.552475 340.692232 205.093959 378.026002 177.857861 421.813803 C 163.469372 443.334158 152.662388 466.88826 141.626354 490.214084 C 133.90113 506.006746 122.927565 522.297468 125.363821 540.725699 C 126.030148 544.772439 128.362291 548.715416 132.235314 550.437875 Z M 427.230578 422.436378 C 426.16862 425.134205 429.750126 421.232733 427.230578 422.436378 Z M 577.237346 563.4497 C 576.175388 566.126774 579.756894 562.225302 577.237346 563.4497 Z M 404.221489 568.430303 L 404.658766 570.173514 Z M 372.237814 1032.435728 C 371.175856 1035.133554 374.757361 1031.232082 372.237814 1032.435728 Z M 436.225987 1044.43068 C 435.164029 1047.128506 438.745534 1043.227034 436.225987 1044.43068 Z M 233.225434 1095.440355 C 232.163476 1098.138182 235.744981 1094.215957 233.225434 1095.440355 Z M 175.2342 1165.43858 L 176.525208 1164.131171 Z M 69.225808 1323.448209 C 68.16385 1326.125283 71.745355 1322.223811 69.225808 1323.448209 Z M 440.223946 1444.435356 C 439.161988 1447.133183 442.764316 1443.231711 440.223946 1444.435356 Z M 250.237584 1453.441947 C 249.175626 1456.139773 252.757131 1452.217549 250.237584 1453.441947 Z M 307.229328 1460.435543 C 306.16737 1463.13337 309.748876 1459.231898 307.229328 1460.435543 Z M 318.223717 1460.435543 C 317.161759 1463.13337 320.764087 1459.231898 318.223717 1460.435543 Z M 318.223717 1460.435543 " transform="matrix(0.187596,0,0,0.18823,126.779161,-37.253574)"/>
</g>
</g>
</svg>
